<svg width="66" height="19" viewBox="0 0 66 19" fill="none" xmlns="http://www.w3.org/2000/svg">
<path d="M0.288 18H3.984L5.736 11.496H13.752L14.64 8.136H6.624L7.584 4.56H16.68L17.592 1.2H4.8L0.288 18ZM19.7301 3.72H23.5701L24.4581 0.48H20.6181L19.7301 3.72ZM15.9861 18H19.6341L23.0901 5.136H19.4421L15.9861 18ZM23.2283 18H26.8763L31.5803 0.48H27.9323L23.2283 18ZM35.0064 18.216C36.0144 18.216 36.8944 18.04 37.6464 17.688L38.4864 14.592C38.1824 14.72 37.8624 14.824 37.5264 14.904C37.2064 14.968 36.9024 15 36.6144 15C35.9584 15 35.6304 14.744 35.6304 14.232C35.6304 14.152 35.6384 14.064 35.6544 13.968C35.6704 13.856 35.6944 13.752 35.7264 13.656L37.1664 8.256H40.1904L41.0304 5.136H38.0064L38.8944 1.848H35.2464L34.3584 5.136H32.8224L31.9824 8.256H33.5184L31.9584 14.088C31.8784 14.376 31.8144 14.648 31.7664 14.904C31.7344 15.16 31.7184 15.424 31.7184 15.696C31.7184 16.416 31.9904 17.016 32.5344 17.496C33.0784 17.976 33.9024 18.216 35.0064 18.216ZM40.2874 18H43.9354L45.1594 13.44C45.6074 11.76 46.2794 10.552 47.1754 9.816C48.0714 9.08 49.1274 8.712 50.3434 8.712H50.5354L51.5674 4.896C50.5114 4.816 49.5914 5.032 48.8074 5.544C48.0394 6.04 47.3274 6.768 46.6714 7.728L47.3674 5.136H43.7194L40.2874 18ZM57.6141 18.288C58.6381 18.288 59.5981 18.08 60.4941 17.664C61.4061 17.248 62.1981 16.696 62.8701 16.008C63.5421 15.32 64.0701 14.528 64.4541 13.632C64.8541 12.736 65.0541 11.808 65.0541 10.848C65.0541 9.984 64.9101 9.192 64.6221 8.472C64.3341 7.736 63.9181 7.104 63.3741 6.576C62.8461 6.048 62.1981 5.64 61.4301 5.352C60.6781 5.048 59.8221 4.896 58.8621 4.896C57.8221 4.896 56.8461 5.104 55.9341 5.52C55.0381 5.936 54.2541 6.488 53.5821 7.176C52.9101 7.864 52.3821 8.656 51.9981 9.552C51.6141 10.448 51.4221 11.376 51.4221 12.336C51.4221 13.2 51.5661 14 51.8541 14.736C52.1421 15.456 52.5501 16.08 53.0781 16.608C53.6221 17.136 54.2701 17.552 55.0221 17.856C55.7901 18.144 56.6541 18.288 57.6141 18.288ZM57.7821 15.168C56.9501 15.168 56.2781 14.92 55.7661 14.424C55.2541 13.912 54.9981 13.184 54.9981 12.24C54.9981 11.792 55.0861 11.32 55.2621 10.824C55.4381 10.312 55.6861 9.856 56.0061 9.456C56.3261 9.04 56.7101 8.696 57.1581 8.424C57.6221 8.152 58.1341 8.016 58.6941 8.016C59.5261 8.016 60.1981 8.272 60.7101 8.784C61.2221 9.28 61.4781 10 61.4781 10.944C61.4781 11.408 61.3901 11.888 61.2141 12.384C61.0381 12.88 60.7901 13.336 60.4701 13.752C60.1501 14.152 59.7581 14.488 59.2941 14.76C58.8461 15.032 58.3421 15.168 57.7821 15.168Z" fill="white"/>
</svg>
